<svg width="12" height="16" viewBox="0 0 12 16" fill="none" xmlns="http://www.w3.org/2000/svg">
<path fill-rule="evenodd" clip-rule="evenodd" d="M2.98109 0.503615H9.0215C9.73121 0.467343 10.4267 0.705169 10.9545 1.16461C11.4823 1.62404 11.7989 2.26732 11.8346 2.95247V14.6637C11.8356 14.8982 11.7341 15.1223 11.5551 15.2808C11.376 15.4394 11.136 15.5177 10.894 15.4966C10.682 15.4966 10.4758 15.4293 10.3073 15.305L6.57082 12.5647C6.21798 12.3092 5.73283 12.3092 5.37999 12.5647L1.67808 15.305C1.51427 15.4259 1.31471 15.493 1.10856 15.4966C0.866566 15.5177 0.62657 15.4394 0.447527 15.2808C0.268485 15.1223 0.16699 14.8982 0.167976 14.6637V2.95247C0.203663 2.26732 0.52034 1.62404 1.04812 1.16461C1.57589 0.705169 2.27138 0.467343 2.98109 0.503615ZM7.37333 11.5734L10.523 13.9057L10.5057 2.95247C10.4241 2.22628 9.75857 1.69466 9.00425 1.75303H2.96383C2.2095 1.69466 1.54401 2.22628 1.46235 2.95247V13.9057L4.612 11.5734C5.42756 10.9736 6.55777 10.9736 7.37333 11.5734Z" fill="black"/>
</svg>
