<svg width="128" height="128" viewBox="0 0 128 128" fill="none" xmlns="http://www.w3.org/2000/svg">
<path d="M64 0C99.3462 0 128 28.6538 128 64C128 99.3462 99.3462 128 64 128C28.6538 128 0 99.3462 0 64C0 28.6538 28.6538 0 64 0ZM64 14C36.3858 14 14 36.3858 14 64C14 78.6655 20.3142 91.8568 30.3721 101.003C30.4917 101.128 30.6218 101.246 30.7617 101.354C39.5962 109.22 51.24 114 64 114C76.7574 114 88.3996 109.222 97.2334 101.358C97.3776 101.248 97.511 101.126 97.6338 100.997C107.688 91.8512 114 78.6625 114 64C114 36.3858 91.6141 14.0001 64 14ZM64 82.9922C69.7986 82.9922 75.4835 84.5957 80.4238 87.6279C84.5824 90.1809 88.078 93.6612 90.6455 97.7812C83.318 103.569 74.0623 107.023 64 107.023C53.9378 107.023 44.682 103.569 37.3545 97.7812C39.922 93.6609 43.4183 90.1809 47.5771 87.6279C52.5175 84.5958 58.2015 82.9922 64 82.9922ZM64 20.9766C87.7609 20.9767 107.023 40.239 107.023 64C107.023 75.1483 102.783 85.3064 95.8271 92.9492C92.7706 88.4112 88.7679 84.5631 84.0742 81.6816H84.0732C82.0128 80.4171 79.8466 79.3552 77.6055 78.5059C83.2253 74.3393 86.8682 67.6571 86.8682 60.124C86.8682 47.4944 76.6296 37.256 64 37.2559C51.3703 37.2559 41.1318 47.4944 41.1318 60.124C41.1318 67.6574 44.7744 74.3403 50.3945 78.5068C48.1536 79.3562 45.987 80.4171 43.9268 81.6816L43.0547 82.2334C38.736 85.0471 35.0393 88.6956 32.1738 92.9502C25.2177 85.3073 20.9766 75.1486 20.9766 64C20.9766 40.2389 40.2389 20.9766 64 20.9766ZM64 44.2324C72.7764 44.2326 79.8916 51.3476 79.8916 60.124C79.8916 68.9005 72.7764 76.0155 64 76.0156C55.2235 76.0156 48.1084 68.9006 48.1084 60.124C48.1084 51.3475 55.2235 44.2324 64 44.2324Z" fill="#D9D9D9"/>
</svg>
