<svg width="108" height="24" viewBox="0 0 108 24" fill="none" xmlns="http://www.w3.org/2000/svg">
<path d="M6.74556 2.00624C5.39856 1.25424 3.80406 1.88924 3.22656 3.16174L12.0646 12.0002L16.5716 7.49325L6.74556 2.00624Z" fill="url(#paint0_linear_8123_23452)"/>
<path d="M16.5716 16.507L12.0646 12L3.22656 20.8385C3.80456 22.1115 5.39906 22.746 6.74556 21.9945L16.5716 16.507Z" fill="url(#paint1_linear_8123_23452)"/>
<path d="M20.709 14.1957C21.569 13.7157 21.999 12.8577 21.9995 11.9992C21.999 11.1407 21.569 10.2822 20.709 9.80269L16.5695 7.49219L12.0625 11.9992L16.5695 16.5062L20.709 14.1957Z" fill="url(#paint2_linear_8123_23452)"/>
<path d="M3.225 3.16211C3.084 3.47461 3 3.82661 3 4.20461V19.7941C3 20.1746 3.082 20.5256 3.225 20.8391L12.062 11.9991L3.225 3.16211Z" fill="url(#paint3_linear_8123_23452)"/>
<path d="M28.8986 12.002C28.8986 10.9473 29.0992 10.0373 29.5006 9.272C29.9112 8.50667 30.4852 7.92333 31.2226 7.522C31.9692 7.11133 32.8419 6.906 33.8406 6.906C34.5499 6.906 35.2079 7.00867 35.8146 7.214C36.4306 7.41 36.9439 7.69467 37.3546 8.068L36.7246 9.44C36.2486 9.08533 35.7866 8.82867 35.3386 8.67C34.8906 8.51133 34.4052 8.432 33.8826 8.432C32.8746 8.432 32.1092 8.73533 31.5866 9.342C31.0732 9.93933 30.8166 10.826 30.8166 12.002C30.8166 13.206 31.0826 14.116 31.6146 14.732C32.1559 15.3387 32.9539 15.642 34.0086 15.642C34.6432 15.642 35.2639 15.5533 35.8706 15.376V12.926H33.7566V11.582H37.5786V16.398C37.2892 16.538 36.9392 16.6687 36.5286 16.79C35.7166 17.0047 34.8532 17.112 33.9386 17.112C32.9026 17.112 32.0019 16.9067 31.2366 16.496C30.4806 16.0853 29.9019 15.4973 29.5006 14.732C29.0992 13.9667 28.8986 13.0567 28.8986 12.002ZM42.8146 17.098C42.0679 17.098 41.4286 16.9487 40.8966 16.65C40.3552 16.3513 39.9352 15.9267 39.6366 15.376C39.3472 14.816 39.2026 14.1627 39.2026 13.416C39.2026 12.6693 39.3472 12.0207 39.6366 11.47C39.9446 10.91 40.3692 10.4807 40.9106 10.182C41.4519 9.88333 42.0866 9.734 42.8146 9.734C43.5426 9.734 44.1772 9.888 44.7186 10.196C45.2599 10.504 45.6799 10.9333 45.9786 11.484C46.2772 12.0347 46.4266 12.6787 46.4266 13.416C46.4266 14.172 46.2772 14.8253 45.9786 15.376C45.6799 15.936 45.2599 16.3653 44.7186 16.664C44.1772 16.9533 43.5426 17.098 42.8146 17.098ZM41.0226 13.416C41.0226 14.172 41.1719 14.7413 41.4706 15.124C41.7786 15.4973 42.2266 15.684 42.8146 15.684C43.3932 15.684 43.8319 15.4973 44.1306 15.124C44.4386 14.7413 44.5926 14.172 44.5926 13.416C44.5926 12.6787 44.4386 12.1187 44.1306 11.736C43.8226 11.3533 43.3839 11.162 42.8146 11.162C42.2452 11.162 41.8019 11.3533 41.4846 11.736C41.1766 12.1187 41.0226 12.6787 41.0226 13.416ZM51.0724 17.098C50.3257 17.098 49.6864 16.9487 49.1544 16.65C48.6131 16.3513 48.1931 15.9267 47.8944 15.376C47.6051 14.816 47.4604 14.1627 47.4604 13.416C47.4604 12.6693 47.6051 12.0207 47.8944 11.47C48.2024 10.91 48.6271 10.4807 49.1684 10.182C49.7097 9.88333 50.3444 9.734 51.0724 9.734C51.8004 9.734 52.4351 9.888 52.9764 10.196C53.5177 10.504 53.9377 10.9333 54.2364 11.484C54.5351 12.0347 54.6844 12.6787 54.6844 13.416C54.6844 14.172 54.5351 14.8253 54.2364 15.376C53.9377 15.936 53.5177 16.3653 52.9764 16.664C52.4351 16.9533 51.8004 17.098 51.0724 17.098ZM49.2804 13.416C49.2804 14.172 49.4297 14.7413 49.7284 15.124C50.0364 15.4973 50.4844 15.684 51.0724 15.684C51.6511 15.684 52.0897 15.4973 52.3884 15.124C52.6964 14.7413 52.8504 14.172 52.8504 13.416C52.8504 12.6787 52.6964 12.1187 52.3884 11.736C52.0804 11.3533 51.6417 11.162 51.0724 11.162C50.5031 11.162 50.0597 11.3533 49.7424 11.736C49.4344 12.1187 49.2804 12.6787 49.2804 13.416ZM59.3582 20.122C58.2569 20.122 57.2909 19.898 56.4602 19.45L56.7542 18.064C57.5942 18.5027 58.4482 18.722 59.3162 18.722C60.5669 18.722 61.1922 18.1107 61.1922 16.888V15.516C61.1082 15.656 60.9869 15.8147 60.8282 15.992C60.5949 16.244 60.3102 16.44 59.9742 16.58C59.6382 16.72 59.2695 16.79 58.8682 16.79C58.2429 16.79 57.7015 16.6453 57.2442 16.356C56.7589 16.0573 56.3809 15.6467 56.1102 15.124C55.8489 14.592 55.7182 13.9713 55.7182 13.262C55.7182 12.5713 55.8535 11.9553 56.1242 11.414C56.3949 10.882 56.7682 10.4713 57.2442 10.182C57.7202 9.88333 58.2615 9.734 58.8682 9.734C59.3815 9.734 59.8389 9.846 60.2402 10.07C60.6509 10.2847 60.9635 10.588 61.1782 10.98V9.916H63.0122V16.748C63.0122 17.8587 62.6995 18.6987 62.0742 19.268C61.4582 19.8373 60.5529 20.122 59.3582 20.122ZM57.5382 13.262C57.5382 13.9153 57.7015 14.4333 58.0282 14.816C58.3549 15.1893 58.8029 15.376 59.3722 15.376C59.9415 15.376 60.3849 15.1893 60.7022 14.816C61.0195 14.4427 61.1782 13.9247 61.1782 13.262C61.1782 12.618 61.0195 12.1093 60.7022 11.736C60.3849 11.3627 59.9415 11.176 59.3722 11.176C58.8029 11.176 58.3549 11.3627 58.0282 11.736C57.7015 12.1 57.5382 12.6087 57.5382 13.262ZM64.8459 6.696H66.6799V17H64.8459V6.696ZM74.6276 16.216C74.3009 16.496 73.8903 16.7153 73.3956 16.874C72.9103 17.0233 72.4109 17.098 71.8976 17.098C71.1136 17.098 70.4463 16.9533 69.8956 16.664C69.3356 16.3653 68.9063 15.9407 68.6076 15.39C68.3089 14.8393 68.1596 14.186 68.1596 13.43C68.1596 12.702 68.3043 12.0627 68.5936 11.512C68.8829 10.952 69.2843 10.518 69.7976 10.21C70.3203 9.89267 70.9176 9.734 71.5896 9.734C72.2243 9.734 72.7889 9.87867 73.2836 10.168C73.7596 10.4573 74.1236 10.868 74.3756 11.4C74.6276 11.932 74.7536 12.562 74.7536 13.29V13.57H69.9236C69.9609 14.298 70.1476 14.8347 70.4836 15.18C70.8289 15.5253 71.3236 15.698 71.9676 15.698C72.7703 15.698 73.4889 15.4507 74.1236 14.956L74.6276 16.216ZM73.1716 12.604C73.1156 12.0907 72.9569 11.7033 72.6956 11.442C72.4343 11.1807 72.0796 11.05 71.6316 11.05C71.1836 11.05 70.8149 11.1853 70.5256 11.456C70.2456 11.7173 70.0636 12.1 69.9796 12.604H73.1716ZM79.5738 7.032H83.9418C85.0244 7.032 85.8644 7.29333 86.4618 7.816C87.0591 8.32933 87.3578 9.03867 87.3578 9.944C87.3578 10.84 87.0544 11.5493 86.4478 12.072C85.8504 12.5947 85.0151 12.856 83.9418 12.856H81.4638V17H79.5738V7.032ZM83.7178 11.4C84.3338 11.4 84.7958 11.2787 85.1038 11.036C85.4118 10.784 85.5658 10.4247 85.5658 9.958C85.5658 8.98733 84.9498 8.502 83.7178 8.502H81.4638V11.4H83.7178ZM88.7853 6.696H90.6193V17H88.7853V6.696ZM95.2211 17.098C94.5957 17.098 94.0497 16.9533 93.5831 16.664C93.1071 16.356 92.7384 15.9313 92.4771 15.39C92.2251 14.8393 92.0991 14.1953 92.0991 13.458C92.0991 12.7113 92.2297 12.0627 92.4911 11.512C92.7617 10.952 93.1304 10.518 93.5971 10.21C94.0731 9.89267 94.6144 9.734 95.2211 9.734C95.7344 9.734 96.1871 9.846 96.5791 10.07C96.9804 10.2847 97.2884 10.588 97.5031 10.98V9.916H99.3091V17H97.5031V15.88C97.2977 16.272 96.9944 16.5753 96.5931 16.79C96.1917 16.9953 95.7344 17.098 95.2211 17.098ZM93.9191 13.458C93.9191 14.1673 94.0731 14.718 94.3811 15.11C94.6984 15.4927 95.1464 15.684 95.7251 15.684C96.2944 15.684 96.7331 15.4927 97.0411 15.11C97.3491 14.718 97.5031 14.158 97.5031 13.43C97.5031 12.702 97.3491 12.1467 97.0411 11.764C96.7331 11.372 96.2944 11.176 95.7251 11.176C95.1557 11.176 94.7124 11.3767 94.3951 11.778C94.0777 12.1793 93.9191 12.7393 93.9191 13.458ZM100.602 18.778C101.087 18.666 101.447 18.554 101.68 18.442C101.969 18.3207 102.207 18.162 102.394 17.966C102.59 17.77 102.753 17.5227 102.884 17.224L103.108 16.706L100.168 9.916H102.086L104.074 14.872L106.104 9.916H107.91L104.634 17.448C104.382 18.0547 104.065 18.554 103.682 18.946C103.337 19.3007 102.945 19.576 102.506 19.772C102.067 19.968 101.568 20.1033 101.008 20.178L100.602 18.778Z" fill="#161616"/>
<defs>
<linearGradient id="paint0_linear_8123_23452" x1="9.05256" y1="1.62224" x2="12.6501" y2="17.3702" gradientUnits="userSpaceOnUse">
<stop stop-color="#35AB4A"/>
<stop offset="0.297" stop-color="#31A145"/>
<stop offset="0.798" stop-color="#288739"/>
<stop offset="1" stop-color="#237A33"/>
</linearGradient>
<linearGradient id="paint1_linear_8123_23452" x1="9.58056" y1="11.931" x2="10.5986" y2="33.4655" gradientUnits="userSpaceOnUse">
<stop stop-color="#F14E5D"/>
<stop offset="0.499" stop-color="#EA3D4F"/>
<stop offset="1" stop-color="#E12138"/>
</linearGradient>
<linearGradient id="paint2_linear_8123_23452" x1="16.471" y1="7.44869" x2="18.27" y2="21.8052" gradientUnits="userSpaceOnUse">
<stop stop-color="#FFD844"/>
<stop offset="0.519" stop-color="#FFC63F"/>
<stop offset="1" stop-color="#FFB03A"/>
</linearGradient>
<linearGradient id="paint3_linear_8123_23452" x1="6.9265" y1="2.95111" x2="7.786" y2="21.4061" gradientUnits="userSpaceOnUse">
<stop offset="0.003" stop-color="#0090E6"/>
<stop offset="1" stop-color="#0065A0"/>
</linearGradient>
</defs>
</svg>
