<svg width="18" height="16" viewBox="0 0 18 16" fill="none" xmlns="http://www.w3.org/2000/svg">
<path d="M17.1032 8.5692C17.4092 8.25446 17.4092 7.74554 17.1032 7.43415L12.9375 3.14509C12.6315 2.83036 12.1369 2.83036 11.8342 3.14509C11.5315 3.45982 11.5283 3.96875 11.8342 4.28013L14.6656 7.19308L6.65627 7.19643C6.22342 7.19643 5.87518 7.55469 5.87518 8C5.87518 8.44531 6.22342 8.80357 6.65627 8.80357H14.6656L11.8342 11.7165C11.5283 12.0312 11.5283 12.5402 11.8342 12.8516C12.1401 13.1629 12.6348 13.1663 12.9375 12.8516L17.1032 8.5692ZM6.13554 2.10714C6.56839 2.10714 6.91663 1.74888 6.91663 1.30357C6.91663 0.858259 6.56839 0.5 6.13554 0.5H3.53194C1.95025 0.5 0.667969 1.8192 0.667969 3.44643V12.5536C0.667969 14.1808 1.95025 15.5 3.53194 15.5H6.13554C6.56839 15.5 6.91663 15.1417 6.91663 14.6964C6.91663 14.2511 6.56839 13.8929 6.13554 13.8929H3.53194C2.81269 13.8929 2.23013 13.2935 2.23013 12.5536V3.44643C2.23013 2.70647 2.81269 2.10714 3.53194 2.10714H6.13554Z" fill="#292929"/>
</svg>
