<svg width="88" height="50" viewBox="0 0 88 50" fill="none" xmlns="http://www.w3.org/2000/svg">
<g clip-path="url(#clip0_780_9005)">
<path d="M11.7019 42.656C9.42191 42.656 7.53791 42.248 6.04991 41.432C4.58591 40.64 3.50591 39.56 2.80991 38.192C2.11391 36.848 1.76591 35.36 1.76591 33.728C1.76591 30.608 2.67791 28.148 4.50191 26.348C6.34991 24.524 8.89391 23 12.1339 21.776C11.0299 21.464 9.91391 21.176 8.78591 20.912C7.68191 20.624 6.92591 20.48 6.51791 20.48C6.06191 20.48 5.68991 20.588 5.40191 20.804C5.13791 20.996 4.89791 21.224 4.68191 21.488C4.46591 21.752 4.29791 21.956 4.17791 22.1C3.98591 22.292 3.76991 22.388 3.52991 22.388C3.24191 22.388 2.98991 22.28 2.77391 22.064C2.58191 21.848 2.50991 21.584 2.55791 21.272C2.84591 19.472 3.36191 18.056 4.10591 17.024C4.87391 15.968 5.94191 15.332 7.30991 15.116C7.64591 15.068 7.88591 15.044 8.02991 15.044C8.79791 15.044 9.60191 15.188 10.4419 15.476C11.3059 15.74 12.4339 16.16 13.8259 16.736C15.1939 17.312 16.3579 17.768 17.3179 18.104C18.2779 18.416 19.2379 18.62 20.1979 18.716C20.6299 18.788 20.8459 18.98 20.8459 19.292C20.8459 19.34 20.8099 19.508 20.7379 19.796L19.6939 23.936L18.6139 24.26C18.7339 24.836 19.0339 25.256 19.5139 25.52C19.9939 25.76 20.7139 25.88 21.6739 25.88H23.0419L23.4019 28.94L23.0419 32H22.4659C20.4739 32 18.9859 31.484 18.0019 30.452C17.0179 29.42 16.4779 27.584 16.3819 24.944C13.9819 25.76 11.8579 26.66 10.0099 27.644C8.16191 28.604 6.73391 29.552 5.72591 30.488C4.71791 31.4 4.21391 32.216 4.21391 32.936C4.21391 34.088 4.93391 34.976 6.37391 35.6C7.83791 36.224 9.66191 36.536 11.8459 36.536C14.3659 36.536 17.3299 36.104 20.7379 35.24C20.8099 35.216 20.9179 35.204 21.0619 35.204C21.4699 35.204 21.6739 35.42 21.6739 35.852C21.6739 36.188 21.6019 36.512 21.4579 36.824C21.2899 37.28 21.0499 37.796 20.7379 38.372C20.4259 38.972 20.1499 39.416 19.9099 39.704C19.2139 40.568 18.0739 41.276 16.4899 41.828C14.9299 42.38 13.3339 42.656 11.7019 42.656ZM9.61391 32.396C9.44591 32.252 9.36191 32.108 9.36191 31.964C9.36191 31.844 9.44591 31.7 9.61391 31.532L11.7019 29.408C11.8699 29.24 12.0019 29.156 12.0979 29.156C12.2179 29.156 12.3499 29.24 12.4939 29.408L14.6539 31.532C14.8459 31.724 14.9419 31.868 14.9419 31.964C14.9419 32.06 14.8459 32.204 14.6539 32.396L12.5659 34.52C12.4219 34.664 12.3019 34.736 12.2059 34.736C12.0859 34.736 11.9539 34.664 11.8099 34.52L9.61391 32.396ZM22.6794 25.88H22.9674C24.0474 25.88 24.9114 25.772 25.5594 25.556C26.2074 25.316 26.7714 24.872 27.2514 24.224C27.7314 23.576 28.1874 22.58 28.6194 21.236C28.7154 20.948 28.8594 20.72 29.0514 20.552C29.2674 20.384 29.4834 20.3 29.6994 20.3C29.9634 20.3 30.1794 20.408 30.3474 20.624C30.5394 20.816 30.6354 21.104 30.6354 21.488C30.6354 22.136 30.5994 22.784 30.5274 23.432C30.4554 24.08 30.3834 24.572 30.3114 24.908C30.5274 25.172 31.0074 25.4 31.7514 25.592C32.5194 25.784 33.1554 25.88 33.6594 25.88H34.0194L34.3794 28.94L34.0194 32H33.6594C32.5554 32 31.5354 31.712 30.5994 31.136C29.6874 30.56 29.0634 29.744 28.7274 28.688C28.1514 29.576 27.3834 30.356 26.4234 31.028C25.4634 31.676 24.3114 32 22.9674 32H22.6794V25.88ZM23.8674 15.224C23.6994 15.08 23.6154 14.936 23.6154 14.792C23.6154 14.672 23.6994 14.528 23.8674 14.36L25.9554 12.236C26.1234 12.068 26.2554 11.984 26.3514 11.984C26.4714 11.984 26.6034 12.068 26.7474 12.236L28.9074 14.36C29.0994 14.552 29.1954 14.696 29.1954 14.792C29.1954 14.888 29.0994 15.032 28.9074 15.224L26.8194 17.348C26.6754 17.492 26.5554 17.564 26.4594 17.564C26.3394 17.564 26.2074 17.492 26.0634 17.348L23.8674 15.224ZM36.806 8.232C36.614 8.232 36.314 8.148 35.906 7.98C35.498 7.812 35.198 7.644 35.006 7.476C34.91 7.404 34.862 7.32 34.862 7.224C34.862 7.128 34.958 7.056 35.15 7.008C36.278 6.792 37.226 6.576 37.994 6.36C38.786 6.144 39.542 5.832 40.262 5.424C39.998 5.448 39.686 5.436 39.326 5.388C38.966 5.316 38.642 5.208 38.354 5.064C38.018 4.872 37.754 4.632 37.562 4.344C37.394 4.032 37.31 3.708 37.31 3.372C37.31 3.108 37.394 2.784 37.562 2.4C37.802 1.896 38.126 1.5 38.534 1.212C38.942 0.899999 39.362 0.743999 39.794 0.743999C40.01 0.743999 40.238 0.803999 40.478 0.923999C40.91 1.14 41.234 1.476 41.45 1.932C41.666 2.364 41.774 2.856 41.774 3.408C41.774 3.84 41.702 4.284 41.558 4.74C41.414 5.172 41.21 5.556 40.946 5.892C40.418 6.564 39.722 7.116 38.858 7.548C37.994 7.98 37.31 8.208 36.806 8.232ZM38.354 2.472C38.306 2.688 38.33 2.916 38.426 3.156C38.546 3.372 38.75 3.552 39.038 3.696C39.398 3.912 39.746 4.068 40.082 4.164C40.418 4.236 40.61 4.284 40.658 4.308C40.682 3.876 40.598 3.48 40.406 3.12C40.238 2.736 40.01 2.46 39.722 2.292C39.554 2.196 39.35 2.148 39.11 2.148C38.798 2.148 38.546 2.256 38.354 2.472ZM33.7544 25.88H34.4744C36.5144 25.88 38.2184 25.808 39.5864 25.664C40.9784 25.496 41.8424 25.112 42.1784 24.512C41.6984 23.48 40.7624 22.232 39.3704 20.768C37.9784 19.28 36.5384 17.984 35.0504 16.88L35.7704 11.696L48.6944 6.044C48.8864 5.948 49.0784 5.9 49.2704 5.9C49.4864 5.9 49.6544 5.972 49.7744 6.116C49.9184 6.236 49.9904 6.404 49.9904 6.62C49.9904 6.74 49.9784 6.836 49.9544 6.908L49.0184 11.552L40.4144 14.972C41.5904 16.388 42.6104 18.008 43.4744 19.832C44.3624 21.656 44.8064 23.384 44.8064 25.016C44.8064 25.952 44.6504 26.78 44.3384 27.5C43.5944 29.276 42.3944 30.476 40.7384 31.1C39.1064 31.7 36.9824 32 34.3664 32H33.7544V25.88Z" fill="#744D7E"/>
<path fill-rule="evenodd" clip-rule="evenodd" d="M63.202 13.9716C66.7436 13.9895 69.7587 15.0783 72.6541 16.5619C73.0011 16.7414 73.348 17.3037 73.354 17.6866C73.3915 21.612 73.3886 25.5375 73.3856 29.5839V29.5841C73.3848 30.6992 73.3839 31.8235 73.3839 32.9595C73.1674 32.8894 72.9686 32.8235 72.7813 32.7614L72.7807 32.7613L72.7806 32.7612C72.4247 32.6433 72.11 32.539 71.7926 32.445C71.1317 32.2489 70.47 32.0544 69.8082 31.8598L69.8077 31.8597L69.807 31.8595L69.8068 31.8594C67.9049 31.3003 66.0016 30.7408 64.1113 30.1418C63.7524 30.0281 63.2499 29.5615 63.2439 29.2564C63.1953 25.1579 63.198 21.0594 63.2007 16.8873V16.8873V16.8873V16.8872V16.8871V16.8869V16.8868C63.2014 15.9193 63.202 14.9479 63.202 13.9716ZM74.5976 33.0432C74.5976 31.9707 74.5971 30.9108 74.5967 29.8611C74.5948 25.7112 74.5929 21.7187 74.6216 17.7225C74.6216 17.3934 74.8489 16.9089 75.1181 16.7533C78.0913 15.0902 81.2261 13.9775 84.8932 13.9895V16.179C84.8932 17.2216 84.8921 18.2638 84.891 19.3058C84.8876 22.4312 84.8843 25.555 84.9112 28.6821C84.9172 29.6273 84.6539 30.0102 83.6429 30.2495C81.8146 30.6865 80.0161 31.2498 78.2178 31.8131L78.2175 31.8132C77.6035 32.0055 76.9895 32.1979 76.3744 32.3851C76.0649 32.4798 75.7643 32.5966 75.3997 32.7383L75.3996 32.7383C75.1652 32.8294 74.9043 32.9308 74.5976 33.0432ZM61.9933 30.8179V16.544C60.4918 17.4354 59.9713 18.4165 60.0072 19.8882C60.0969 23.8126 60.0969 27.737 60.0012 31.6554C59.9713 32.9835 60.4858 33.2647 61.6703 33.4561C64.153 33.8569 66.6655 34.2996 69.0465 35.0833C70.6079 35.5978 71.5292 35.179 72.8632 33.815C70.6232 33.1963 68.493 32.6093 66.3684 32.0239C64.9185 31.6244 63.4712 31.2256 61.9933 30.8179ZM75.4719 34.0662C78.4392 32.6424 81.4782 31.757 84.6369 31.3682C85.8752 31.2186 86.1863 30.7819 86.1683 29.6094C86.125 26.5513 86.1319 23.4902 86.139 20.362C86.1417 19.1759 86.1444 17.9801 86.1444 16.7713C87.3768 17.3875 88.0049 18.1054 87.987 19.4334C87.9331 23.5074 87.9271 27.5874 87.9989 31.6613C88.0229 32.8578 87.64 33.2407 86.4555 33.4321C83.919 33.8389 81.3526 34.2876 78.9177 35.0832C77.3982 35.5857 76.5009 35.2088 75.4719 34.0662ZM72.3492 36.0284C73.9525 34.5866 74.0123 34.5866 75.7412 36.0284H72.3492Z" fill="#744D7E"/>
</g>
<defs>
<clipPath id="clip0_780_9005">
<rect width="88" height="50" fill="white"/>
</clipPath>
</defs>
</svg>
