<svg width="28" height="26" viewBox="0 0 28 26" fill="none" xmlns="http://www.w3.org/2000/svg">
<path fill-rule="evenodd" clip-rule="evenodd" d="M1.74248 0.666668H3.17646L3.24816 0.681792C5.23588 0.722459 6.97268 2.10854 7.5501 4.11503L7.8369 5.15861H22.7933C24.114 5.16495 25.3681 5.77119 26.2349 6.82229C27.0991 7.88005 27.4816 9.28355 27.2817 10.6639L26.4213 16.9254C26.1347 19.3255 24.212 21.1338 21.9186 21.1602H13.4868C11.4725 21.1523 9.69854 19.7598 9.11314 17.727L5.48517 4.82587C5.20735 3.71904 4.26199 2.9449 3.17646 2.93532H1.74248C1.1485 2.93532 0.666992 2.42747 0.666992 1.801C0.666992 1.17452 1.1485 0.666668 1.74248 0.666668ZM11.1781 17.001C11.4825 18.0779 12.4214 18.8159 13.4868 18.8159H21.9186C23.1055 18.8023 24.1106 17.8891 24.299 16.6531L25.1594 10.3765C25.2766 9.64591 25.0855 8.89776 24.6363 8.32804C24.1871 7.75832 23.5245 7.42381 22.822 7.41214H8.48219L11.1781 17.001Z" fill="#744D7E"/>
<path d="M13.157 22.9751C12.365 22.9751 11.723 23.6523 11.723 24.4876C11.723 25.3229 12.365 26 13.157 26C13.9489 26 14.5909 25.3229 14.5909 24.4876C14.5909 23.6523 13.9489 22.9751 13.157 22.9751Z" fill="#744D7E"/>
<path d="M21.7609 22.9751C20.9689 22.9751 20.3269 23.6523 20.3269 24.4876C20.3269 25.3229 20.9689 26 21.7609 26C22.5528 26 23.1948 25.3229 23.1948 24.4876C23.1948 23.6523 22.5528 22.9751 21.7609 22.9751Z" fill="#744D7E"/>
</svg>
