<svg width="20" height="20" viewBox="0 0 20 20" fill="none" xmlns="http://www.w3.org/2000/svg">
<path fill-rule="evenodd" clip-rule="evenodd" d="M0 10C0 4.47715 4.47715 0 10 0C15.5228 0 20 4.47715 20 10C20 12.9325 18.7377 15.5702 16.7268 17.3994C16.7022 17.4253 16.6755 17.4494 16.6466 17.4716C14.8798 19.0444 12.5515 20 10 20C7.44799 20 5.11927 19.044 3.35237 17.4707C3.32436 17.4491 3.29834 17.4256 3.27437 17.4005C1.2628 15.5713 0 12.9331 0 10ZM4.67093 16.7563C6.13644 17.9138 7.98754 18.6047 10 18.6047C12.0125 18.6047 13.8636 17.9137 15.3292 16.7562C14.8156 15.9322 14.1165 15.2361 13.2848 14.7255C12.2967 14.1191 11.1597 13.7984 10 13.7984C8.84027 13.7984 7.70344 14.1191 6.71534 14.7255C5.88356 15.2361 5.18445 15.9322 4.67093 16.7563ZM7.27893 12.9013C6.83072 13.0712 6.39752 13.2834 5.98544 13.5363L5.9854 13.5363C5.04656 14.1127 4.24599 14.8823 3.63467 15.79C2.24345 14.2614 1.39535 12.2297 1.39535 10C1.39535 5.24778 5.24778 1.39535 10 1.39535C14.7522 1.39535 18.6047 5.24778 18.6047 10C18.6047 12.2297 17.7566 14.2613 16.3654 15.7899C15.7541 14.8822 14.9535 14.1126 14.0148 13.5364L14.0147 13.5363C13.6026 13.2834 13.1694 13.0711 12.7211 12.9013C13.8451 12.068 14.5736 10.7315 14.5736 9.22481C14.5736 6.69887 12.5259 4.65116 10 4.65116C7.47407 4.65116 5.42636 6.69887 5.42636 9.22481C5.42636 10.7315 6.15491 12.068 7.27893 12.9013ZM10 6.04651C8.24469 6.04651 6.82171 7.4695 6.82171 9.22481C6.82171 10.9801 8.24469 12.4031 10 12.4031C11.7553 12.4031 13.1783 10.9801 13.1783 9.22481C13.1783 7.4695 11.7553 6.04651 10 6.04651Z" fill="#8A8A8A"/>
</svg>
